<svg xmlns="http://www.w3.org/2000/svg" xmlns:xlink="http://www.w3.org/1999/xlink" width="500" zoomAndPan="magnify" viewBox="0 0 375 374.999991" height="500" preserveAspectRatio="xMidYMid meet" version="1.0"><defs><g/><clipPath id="33fd54c0da"><path d="M 114.445312 140 L 260.695312 140 L 260.695312 208.289062 L 114.445312 208.289062 Z M 114.445312 140 " clip-rule="nonzero"/></clipPath><clipPath id="31296b3cd2"><path d="M 164 93.539062 L 211 93.539062 L 211 163 L 164 163 Z M 164 93.539062 " clip-rule="nonzero"/></clipPath><clipPath id="94499b3d71"><path d="M 120 145 L 240 145 L 240 208.289062 L 120 208.289062 Z M 120 145 " clip-rule="nonzero"/></clipPath></defs><rect x="-37.5" width="450" fill="#ffffff" y="-37.499999" height="449.999989" fill-opacity="1"/><rect x="-37.5" width="450" fill="#ffffff" y="-37.499999" height="449.999989" fill-opacity="1"/><rect x="-37.5" width="450" fill="#051d40" y="-37.499999" height="449.999989" fill-opacity="1"/><g clip-path="url(#33fd54c0da)"><path fill="#b1d4e0" d="M 177.429688 141.210938 C 177.605469 141.589844 177.785156 141.964844 177.964844 142.339844 C 177.894531 141.910156 177.707031 141.519531 177.429688 141.210938 M 236.457031 140.460938 C 236.457031 140.460938 221.269531 140.460938 202.953125 140.460938 C 202.289062 141.96875 201.601562 143.460938 200.902344 144.910156 C 216.5625 144.910156 230.308594 144.910156 234.863281 144.910156 L 235.582031 147.015625 C 235.804688 146.023438 236.691406 145.28125 237.753906 145.28125 C 237.757812 145.28125 237.761719 145.28125 237.765625 145.28125 C 238.996094 145.289062 239.988281 146.292969 239.980469 147.519531 C 239.964844 150.007812 239.660156 152.300781 239.09375 154.40625 C 238.980469 154.824219 238.757812 155.179688 238.460938 155.453125 L 255.003906 203.871094 L 125.707031 203.871094 C 125.617188 203.984375 125.53125 204.097656 125.449219 204.214844 C 125.027344 204.828125 124.742188 205.488281 124.589844 206.277344 C 124.386719 207.34375 123.453125 208.085938 122.40625 208.085938 C 122.265625 208.085938 122.125 208.070312 121.984375 208.042969 C 120.773438 207.8125 119.984375 206.644531 120.214844 205.4375 C 120.320312 204.898438 120.464844 204.375 120.648438 203.871094 L 120.257812 203.871094 L 141.6875 144.910156 C 142.058594 144.910156 142.492188 144.910156 142.988281 144.910156 C 148.304688 144.910156 160.4375 144.910156 174.257812 144.910156 C 173.554688 143.460938 172.863281 141.96875 172.195312 140.460938 C 163.949219 140.460938 156.414062 140.460938 150.722656 140.460938 C 147.472656 140.460938 144.824219 140.460938 142.988281 140.460938 C 141.152344 140.460938 140.128906 140.460938 140.125 140.460938 C 139.191406 140.460938 138.351562 141.050781 138.03125 141.925781 L 114.988281 205.335938 C 114.738281 206.023438 114.835938 206.777344 115.253906 207.375 C 115.675781 207.96875 116.351562 208.320312 117.082031 208.320312 L 258.117188 208.320312 C 258.839844 208.320312 259.507812 207.976562 259.929688 207.390625 C 260.347656 206.804688 260.457031 206.058594 260.226562 205.378906 L 238.5625 141.96875 C 238.253906 141.066406 237.410156 140.460938 236.457031 140.460938 " fill-opacity="1" fill-rule="nonzero"/></g><g clip-path="url(#31296b3cd2)"><path fill="#56aeff" d="M 187.578125 127.675781 C 184.628906 127.675781 181.980469 126.488281 180.046875 124.558594 C 178.113281 122.625 176.925781 119.980469 176.925781 117.035156 C 176.925781 114.089844 178.113281 111.441406 180.046875 109.511719 C 181.980469 107.582031 184.628906 106.394531 187.578125 106.394531 C 190.527344 106.394531 193.175781 107.582031 195.109375 109.511719 C 197.042969 111.445312 198.230469 114.089844 198.230469 117.035156 C 198.230469 119.980469 197.042969 122.628906 195.109375 124.558594 C 193.175781 126.488281 190.527344 127.675781 187.578125 127.675781 M 187.582031 101.945312 C 187.582031 101.945312 187.578125 101.945312 187.578125 101.945312 C 187.578125 101.945312 187.574219 101.945312 187.574219 101.945312 C 183.410156 101.945312 179.621094 103.636719 176.894531 106.363281 C 174.164062 109.085938 172.46875 112.875 172.46875 117.035156 C 172.46875 121.195312 174.164062 124.980469 176.894531 127.707031 C 179.621094 130.433594 183.410156 132.125 187.574219 132.125 C 187.574219 132.125 187.578125 132.125 187.578125 132.125 C 191.742188 132.128906 195.535156 130.433594 198.261719 127.707031 C 200.992188 124.984375 202.6875 121.195312 202.683594 117.035156 C 202.6875 112.875 200.992188 109.089844 198.261719 106.363281 C 195.535156 103.636719 191.746094 101.945312 187.582031 101.945312 M 187.582031 93.566406 C 187.582031 93.566406 187.578125 93.566406 187.578125 93.566406 C 181.34375 93.5625 175.683594 96.09375 171.601562 100.175781 C 167.515625 104.253906 164.980469 109.910156 164.980469 116.136719 C 164.984375 117.785156 165.246094 119.640625 165.6875 121.695312 C 166.460938 125.28125 167.796875 129.46875 169.441406 133.785156 C 170.289062 136.003906 171.21875 138.25 172.195312 140.460938 C 173.371094 140.460938 174.5625 140.460938 175.761719 140.460938 C 176.425781 140.460938 177.019531 140.75 177.429688 141.207031 C 175.660156 137.421875 173.996094 133.402344 172.652344 129.617188 C 171.664062 126.839844 170.851562 124.1875 170.292969 121.859375 C 169.730469 119.535156 169.433594 117.523438 169.4375 116.136719 C 169.4375 111.125 171.464844 106.609375 174.75 103.324219 C 178.039062 100.039062 182.558594 98.015625 187.578125 98.015625 C 192.59375 98.015625 197.117188 100.039062 200.40625 103.324219 C 203.691406 106.609375 205.71875 111.125 205.71875 116.136719 C 205.722656 117.289062 205.511719 118.898438 205.109375 120.757812 C 204.402344 124.015625 203.117188 128.066406 201.519531 132.25 C 199.121094 138.53125 196.011719 145.152344 193.136719 150.113281 C 191.703125 152.589844 190.316406 154.660156 189.179688 156.007812 C 188.613281 156.679688 188.105469 157.167969 187.769531 157.421875 C 187.722656 157.457031 187.675781 157.488281 187.636719 157.511719 C 187.546875 157.453125 187.425781 157.371094 187.292969 157.257812 C 186.734375 156.804688 185.929688 155.921875 185.054688 154.742188 C 183.515625 152.675781 181.726562 149.707031 179.953125 146.316406 C 179.285156 145.042969 178.617188 143.710938 177.964844 142.339844 C 177.980469 142.453125 177.988281 142.570312 177.988281 142.6875 C 177.988281 143.914062 176.992188 144.910156 175.761719 144.910156 C 175.257812 144.910156 174.757812 144.910156 174.257812 144.910156 C 175.527344 147.527344 176.835938 150.003906 178.121094 152.21875 C 179.648438 154.835938 181.132812 157.074219 182.558594 158.765625 C 183.277344 159.613281 183.972656 160.328125 184.722656 160.902344 C 185.097656 161.1875 185.492188 161.441406 185.933594 161.648438 C 186.371094 161.851562 186.871094 162.011719 187.449219 162.046875 C 187.515625 162.050781 187.582031 162.050781 187.648438 162.050781 C 188.101562 162.050781 188.519531 161.964844 188.886719 161.835938 C 189.597656 161.585938 190.164062 161.210938 190.707031 160.773438 C 191.71875 159.945312 192.660156 158.851562 193.664062 157.503906 C 195.402344 155.152344 197.257812 152.03125 199.105469 148.488281 C 199.710938 147.335938 200.308594 146.136719 200.902344 144.910156 C 200.566406 144.910156 200.226562 144.910156 199.890625 144.910156 C 198.660156 144.910156 197.664062 143.914062 197.664062 142.6875 C 197.664062 141.457031 198.660156 140.460938 199.890625 140.460938 C 200.921875 140.460938 201.941406 140.460938 202.953125 140.460938 C 204.320312 137.367188 205.589844 134.191406 206.675781 131.136719 C 207.710938 128.234375 208.574219 125.4375 209.1875 122.902344 C 209.796875 120.359375 210.171875 118.097656 210.171875 116.136719 C 210.175781 109.910156 207.640625 104.253906 203.554688 100.175781 C 199.472656 96.097656 193.8125 93.566406 187.582031 93.566406 " fill-opacity="1" fill-rule="nonzero"/></g><path fill="#145da0" d="M 175.761719 140.460938 C 174.5625 140.460938 173.371094 140.460938 172.195312 140.460938 C 172.863281 141.96875 173.554688 143.460938 174.257812 144.910156 C 174.757812 144.910156 175.257812 144.910156 175.761719 144.910156 C 176.992188 144.910156 177.988281 143.914062 177.988281 142.6875 C 177.988281 142.570312 177.980469 142.453125 177.964844 142.339844 C 177.785156 141.964844 177.605469 141.589844 177.429688 141.210938 C 177.019531 140.75 176.425781 140.460938 175.761719 140.460938 M 202.953125 140.460938 C 201.941406 140.460938 200.921875 140.460938 199.890625 140.460938 C 198.660156 140.460938 197.664062 141.457031 197.664062 142.6875 C 197.664062 143.914062 198.660156 144.910156 199.890625 144.910156 C 200.226562 144.910156 200.566406 144.910156 200.902344 144.910156 C 201.601562 143.460938 202.289062 141.96875 202.953125 140.460938 " fill-opacity="1" fill-rule="nonzero"/><path fill="#56aeff" d="M 125.890625 198.476562 C 125.441406 198.476562 124.992188 198.609375 124.601562 198.886719 C 123.511719 199.660156 122.542969 200.589844 121.785156 201.6875 C 121.320312 202.355469 120.9375 203.089844 120.648438 203.871094 L 125.707031 203.871094 C 126.09375 203.390625 126.582031 202.941406 127.179688 202.515625 C 128.183594 201.804688 128.417969 200.414062 127.707031 199.414062 C 127.273438 198.800781 126.585938 198.476562 125.890625 198.476562 M 138.042969 194.796875 C 137.960938 194.796875 137.878906 194.800781 137.792969 194.808594 C 135.460938 195.066406 133.226562 195.445312 131.15625 196 C 129.964844 196.320312 129.261719 197.539062 129.582031 198.726562 C 129.847656 199.71875 130.75 200.375 131.730469 200.375 C 131.921875 200.375 132.117188 200.347656 132.3125 200.296875 C 134.089844 199.820312 136.117188 199.46875 138.28125 199.230469 C 139.503906 199.097656 140.386719 197.996094 140.253906 196.773438 C 140.125 195.636719 139.160156 194.796875 138.042969 194.796875 M 157.253906 194.546875 C 156.066406 194.546875 155.082031 195.484375 155.03125 196.679688 C 154.980469 197.90625 155.9375 198.945312 157.167969 198.992188 C 159.441406 199.085938 161.605469 199.1875 163.578125 199.261719 C 163.609375 199.261719 163.636719 199.261719 163.664062 199.261719 C 164.855469 199.261719 165.84375 198.320312 165.886719 197.121094 C 165.933594 195.890625 164.972656 194.859375 163.746094 194.8125 C 161.804688 194.742188 159.640625 194.640625 157.347656 194.546875 C 157.316406 194.546875 157.285156 194.546875 157.253906 194.546875 M 148.042969 194.324219 C 146.820312 194.324219 145.59375 194.339844 144.371094 194.375 C 143.140625 194.410156 142.175781 195.4375 142.210938 196.664062 C 142.246094 197.871094 143.234375 198.824219 144.433594 198.824219 C 144.457031 198.824219 144.476562 198.824219 144.5 198.824219 C 145.671875 198.789062 146.855469 198.773438 148.042969 198.773438 C 148.96875 198.773438 149.890625 198.785156 150.8125 198.800781 C 150.824219 198.800781 150.839844 198.800781 150.851562 198.800781 C 152.0625 198.800781 153.054688 197.828125 153.078125 196.613281 C 153.097656 195.382812 152.117188 194.371094 150.886719 194.351562 C 149.945312 194.332031 148.996094 194.324219 148.042969 194.324219 M 176.230469 193.234375 C 175.898438 193.234375 175.558594 193.3125 175.238281 193.46875 C 173.996094 194.09375 172.394531 194.566406 171.039062 194.753906 C 170.742188 194.796875 170.371094 194.832031 169.9375 194.859375 C 168.710938 194.929688 167.773438 195.984375 167.847656 197.210938 C 167.917969 198.390625 168.898438 199.304688 170.070312 199.304688 C 170.113281 199.304688 170.15625 199.304688 170.203125 199.300781 C 170.722656 199.269531 171.207031 199.226562 171.667969 199.160156 C 173.503906 198.894531 175.460938 198.324219 177.226562 197.453125 C 178.324219 196.90625 178.773438 195.570312 178.226562 194.472656 C 177.835938 193.6875 177.050781 193.234375 176.230469 193.234375 M 174.75 184.375 C 173.851562 184.375 173.003906 184.921875 172.667969 185.8125 C 172.230469 186.960938 172.808594 188.246094 173.957031 188.679688 C 174.375 188.839844 174.726562 189.007812 175.003906 189.175781 C 175.859375 189.691406 176.457031 190.167969 176.835938 190.554688 C 177.214844 190.941406 177.363281 191.226562 177.414062 191.375 C 177.734375 192.289062 178.59375 192.863281 179.515625 192.863281 C 179.757812 192.863281 180.007812 192.824219 180.25 192.738281 C 181.410156 192.332031 182.023438 191.0625 181.617188 189.902344 C 181.296875 188.996094 180.746094 188.1875 180.023438 187.449219 C 179.300781 186.710938 178.40625 186.03125 177.308594 185.367188 C 176.742188 185.023438 176.148438 184.753906 175.539062 184.519531 C 175.28125 184.421875 175.011719 184.375 174.75 184.375 M 162.3125 181.328125 C 161.441406 181.328125 160.613281 181.839844 160.257812 182.691406 C 159.78125 183.824219 160.3125 185.128906 161.449219 185.605469 C 163.59375 186.5 165.921875 186.941406 168.109375 187.34375 C 168.246094 187.367188 168.378906 187.378906 168.511719 187.378906 C 169.566406 187.378906 170.503906 186.628906 170.699219 185.554688 C 170.921875 184.34375 170.121094 183.1875 168.910156 182.964844 C 166.769531 182.578125 164.703125 182.152344 163.171875 181.503906 C 162.890625 181.386719 162.597656 181.328125 162.3125 181.328125 M 161.4375 171.773438 C 160.988281 171.773438 160.539062 171.90625 160.144531 172.1875 C 159.128906 172.914062 158.128906 173.785156 157.316406 174.859375 C 156.910156 175.394531 156.550781 175.988281 156.28125 176.652344 C 156.015625 177.3125 155.84375 178.054688 155.84375 178.839844 C 155.84375 179.007812 155.851562 179.175781 155.867188 179.34375 C 155.976562 180.496094 156.945312 181.359375 158.082031 181.359375 C 158.152344 181.359375 158.222656 181.359375 158.296875 181.351562 C 159.519531 181.234375 160.417969 180.148438 160.300781 178.925781 L 160.296875 178.839844 C 160.296875 178.703125 160.328125 178.535156 160.414062 178.3125 C 160.546875 177.980469 160.828125 177.542969 161.238281 177.101562 C 161.644531 176.65625 162.171875 176.207031 162.730469 175.8125 C 163.730469 175.097656 163.964844 173.710938 163.253906 172.710938 C 162.816406 172.097656 162.132812 171.773438 161.4375 171.773438 M 192.914062 169.53125 C 191.710938 169.53125 190.722656 170.488281 190.6875 171.695312 C 190.652344 172.925781 191.625 173.949219 192.855469 173.980469 C 194.355469 174.023438 195.90625 174.050781 197.484375 174.050781 C 198.101562 174.050781 198.726562 174.046875 199.351562 174.035156 C 200.582031 174.019531 201.566406 173.011719 201.550781 171.78125 C 201.535156 170.5625 200.539062 169.585938 199.324219 169.585938 C 199.3125 169.585938 199.304688 169.585938 199.292969 169.585938 C 198.6875 169.597656 198.082031 169.597656 197.484375 169.597656 C 195.953125 169.597656 194.445312 169.574219 192.976562 169.535156 C 192.957031 169.53125 192.933594 169.53125 192.914062 169.53125 M 180.109375 168.902344 C 178.929688 168.902344 177.945312 169.828125 177.886719 171.015625 C 177.824219 172.242188 178.769531 173.289062 180 173.351562 C 181.476562 173.425781 182.9375 173.515625 184.359375 173.597656 C 185.015625 173.636719 185.695312 173.675781 186.390625 173.710938 C 186.433594 173.714844 186.472656 173.714844 186.511719 173.714844 C 187.6875 173.714844 188.671875 172.792969 188.734375 171.609375 C 188.800781 170.382812 187.855469 169.332031 186.628906 169.269531 C 185.941406 169.230469 185.265625 169.191406 184.613281 169.15625 C 183.210938 169.074219 181.738281 168.980469 180.222656 168.90625 C 180.183594 168.90625 180.148438 168.902344 180.109375 168.902344 M 173.703125 168.78125 C 173.6875 168.78125 173.667969 168.78125 173.648438 168.78125 C 171.394531 168.835938 169.121094 169.019531 166.910156 169.441406 C 165.703125 169.671875 164.910156 170.839844 165.144531 172.046875 C 165.347656 173.109375 166.28125 173.851562 167.328125 173.851562 C 167.46875 173.851562 167.609375 173.839844 167.75 173.8125 C 169.640625 173.449219 171.671875 173.28125 173.757812 173.230469 C 174.988281 173.199219 175.960938 172.179688 175.929688 170.949219 C 175.902344 169.742188 174.910156 168.78125 173.703125 168.78125 M 212.109375 168.640625 C 212 168.640625 211.890625 168.648438 211.777344 168.667969 C 209.746094 168.972656 207.664062 169.1875 205.574219 169.335938 C 204.347656 169.421875 203.425781 170.484375 203.511719 171.710938 C 203.59375 172.882812 204.570312 173.777344 205.730469 173.777344 C 205.78125 173.777344 205.835938 173.777344 205.886719 173.773438 C 208.078125 173.617188 210.269531 173.390625 212.4375 173.066406 C 213.652344 172.886719 214.492188 171.753906 214.308594 170.535156 C 214.144531 169.433594 213.195312 168.640625 212.109375 168.640625 M 224.433594 165.261719 C 224.128906 165.261719 223.820312 165.324219 223.527344 165.457031 C 221.757812 166.246094 219.839844 166.902344 217.816406 167.441406 C 216.628906 167.753906 215.921875 168.972656 216.234375 170.160156 C 216.5 171.15625 217.402344 171.816406 218.386719 171.816406 C 218.574219 171.816406 218.769531 171.792969 218.960938 171.742188 C 221.175781 171.152344 223.320312 170.425781 225.34375 169.519531 C 226.46875 169.015625 226.972656 167.699219 226.46875 166.578125 C 226.097656 165.75 225.285156 165.261719 224.433594 165.261719 M 234.324219 157.394531 C 233.605469 157.394531 232.902344 157.738281 232.472656 158.375 C 231.414062 159.945312 230.109375 161.300781 228.578125 162.484375 C 227.605469 163.238281 227.429688 164.636719 228.179688 165.609375 C 228.621094 166.175781 229.277344 166.46875 229.941406 166.46875 C 230.417969 166.46875 230.902344 166.320312 231.304688 166.003906 C 233.171875 164.5625 234.824219 162.855469 236.167969 160.863281 C 236.855469 159.84375 236.585938 158.460938 235.5625 157.773438 C 235.183594 157.519531 234.75 157.394531 234.324219 157.394531 M 235.582031 147.015625 C 235.546875 147.171875 235.527344 147.328125 235.527344 147.492188 C 235.511719 149.636719 235.253906 151.542969 234.792969 153.246094 C 234.472656 154.433594 235.175781 155.652344 236.363281 155.972656 C 236.558594 156.027344 236.753906 156.050781 236.945312 156.050781 C 237.511719 156.050781 238.054688 155.832031 238.460938 155.453125 L 235.582031 147.015625 " fill-opacity="1" fill-rule="nonzero"/><g clip-path="url(#94499b3d71)"><path fill="#145da0" d="M 125.707031 203.871094 L 120.648438 203.871094 C 120.464844 204.375 120.320312 204.898438 120.214844 205.4375 C 119.984375 206.644531 120.773438 207.8125 121.984375 208.042969 C 122.125 208.070312 122.265625 208.085938 122.40625 208.085938 C 123.453125 208.085938 124.386719 207.34375 124.589844 206.277344 C 124.746094 205.488281 125.027344 204.828125 125.449219 204.214844 C 125.53125 204.097656 125.617188 203.984375 125.707031 203.871094 M 237.753906 145.28125 C 236.695312 145.28125 235.804688 146.023438 235.582031 147.015625 L 238.464844 155.453125 C 238.757812 155.179688 238.980469 154.824219 239.09375 154.40625 C 239.664062 152.300781 239.964844 150.007812 239.980469 147.519531 C 239.988281 146.292969 239 145.289062 237.769531 145.28125 C 237.761719 145.28125 237.757812 145.28125 237.753906 145.28125 " fill-opacity="1" fill-rule="nonzero"/></g><g fill="#ffffff" fill-opacity="1"><g transform="translate(90.562877, 255.993718)"><g><path d="M 7.484375 -14.65625 L 15.984375 -14.65625 L 15.984375 -13.140625 L 7.484375 -13.140625 L 7.484375 0 L 3.609375 0 L 3.609375 -26.515625 L 19.265625 -26.515625 L 19.265625 -23.828125 L 11.859375 -25.0625 C 10.515625 -25.0625 9.054688 -24.835938 7.484375 -24.390625 Z M 7.484375 -14.65625 "/></g></g></g><g fill="#ffffff" fill-opacity="1"><g transform="translate(109.17712, 255.993718)"><g><path d="M 7.28125 -26.515625 L 7.28125 0 L 3.609375 0 L 3.609375 -26.515625 Z M 7.28125 -26.515625 "/></g></g></g><g fill="#ffffff" fill-opacity="1"><g transform="translate(119.42484, 255.993718)"><g><path d="M 23.75 0.4375 L 23.0625 0.4375 L 5.53125 -21.5 L 5.359375 -21.5 L 5.359375 0 L 3.609375 0 L 3.609375 -26.515625 L 6.5625 -26.515625 L 21.828125 -7.25 L 21.984375 -7.25 L 21.984375 -26.515625 L 23.75 -26.515625 Z M 23.75 0.4375 "/></g></g></g><g fill="#ffffff" fill-opacity="1"><g transform="translate(146.125398, 255.993718)"><g><path d="M 3.609375 0 L 3.609375 -26.515625 L 11.171875 -26.515625 C 14.328125 -26.515625 17.171875 -25.847656 19.703125 -24.515625 C 21.066406 -23.816406 22.253906 -22.945312 23.265625 -21.90625 C 24.273438 -20.863281 25.085938 -19.535156 25.703125 -17.921875 C 26.316406 -16.304688 26.625 -14.507812 26.625 -12.53125 C 26.625 -9.707031 25.921875 -7.316406 24.515625 -5.359375 C 21.921875 -1.785156 17.726562 0 11.9375 0 Z M 11.140625 -1.359375 C 14.523438 -1.359375 17.242188 -2.359375 19.296875 -4.359375 C 21.359375 -6.367188 22.390625 -9.304688 22.390625 -13.171875 C 22.390625 -16.160156 21.570312 -18.71875 19.9375 -20.84375 C 18.3125 -22.96875 16.203125 -24.375 13.609375 -25.0625 C 11.285156 -25.0625 9.257812 -24.785156 7.53125 -24.234375 L 7.53125 -1.71875 C 8.382812 -1.476562 9.585938 -1.359375 11.140625 -1.359375 Z M 11.140625 -1.359375 "/></g></g></g><g fill="#ffffff" fill-opacity="1"><g transform="translate(173.826741, 255.993718)"><g/></g></g><g fill="#ffffff" fill-opacity="1"><g transform="translate(183.19377, 255.993718)"><g><path d="M 13.734375 0 L 9.84375 0 L 9.84375 -9.84375 L 0.796875 -26.515625 L 5.171875 -26.515625 L 12.578125 -11.296875 L 19.5 -26.515625 L 21.5 -26.515625 L 13.734375 -10.046875 Z M 13.734375 0 "/></g></g></g><g fill="#ffffff" fill-opacity="1"><g transform="translate(204.850391, 255.993718)"><g><path d="M 15.65625 -26.984375 C 19.125 -26.984375 21.992188 -25.84375 24.265625 -23.5625 C 26.535156 -21.28125 27.671875 -18.113281 27.671875 -14.0625 C 27.671875 -11.4375 27.21875 -9.144531 26.3125 -7.1875 C 25.40625 -5.226562 24.21875 -3.710938 22.75 -2.640625 C 19.894531 -0.554688 16.742188 0.484375 13.296875 0.484375 C 9.847656 0.484375 6.992188 -0.671875 4.734375 -2.984375 C 2.484375 -5.296875 1.359375 -8.476562 1.359375 -12.53125 C 1.359375 -14.644531 1.65625 -16.546875 2.25 -18.234375 C 2.851562 -19.929688 3.644531 -21.3125 4.625 -22.375 C 5.601562 -23.445312 6.734375 -24.34375 8.015625 -25.0625 C 10.359375 -26.34375 12.90625 -26.984375 15.65625 -26.984375 Z M 7.609375 -4.5625 C 8.304688 -3.382812 9.238281 -2.46875 10.40625 -1.8125 C 11.582031 -1.164062 12.9375 -0.84375 14.46875 -0.84375 C 16.007812 -0.84375 17.378906 -1.226562 18.578125 -2 C 19.785156 -2.769531 20.722656 -3.785156 21.390625 -5.046875 C 22.742188 -7.554688 23.421875 -10.253906 23.421875 -13.140625 C 23.421875 -16.691406 22.71875 -19.546875 21.3125 -21.703125 C 19.726562 -24.128906 17.125 -25.34375 13.5 -25.34375 C 10.90625 -24.4375 8.941406 -22.875 7.609375 -20.65625 C 6.273438 -18.445312 5.609375 -15.941406 5.609375 -13.140625 C 5.609375 -9.722656 6.273438 -6.863281 7.609375 -4.5625 Z M 7.609375 -4.5625 "/></g></g></g><g fill="#ffffff" fill-opacity="1"><g transform="translate(233.232263, 255.993718)"><g><path d="M 23.3125 -26.515625 L 23.3125 -10.25 C 23.3125 -7.769531 23.039062 -5.898438 22.5 -4.640625 C 22.257812 -4.078125 21.878906 -3.441406 21.359375 -2.734375 C 20.835938 -2.035156 20.234375 -1.472656 19.546875 -1.046875 C 17.785156 -0.0234375 15.582031 0.484375 12.9375 0.484375 C 6.3125 0.484375 3 -2.921875 3 -9.734375 L 3 -26.515625 L 7.09375 -26.515625 L 7.09375 -9.40625 C 7.09375 -8.632812 7.101562 -8.007812 7.125 -7.53125 C 7.15625 -7.050781 7.296875 -6.367188 7.546875 -5.484375 C 7.796875 -4.609375 8.140625 -3.898438 8.578125 -3.359375 C 9.023438 -2.828125 9.722656 -2.347656 10.671875 -1.921875 C 11.617188 -1.492188 12.75 -1.28125 14.0625 -1.28125 C 19.050781 -1.28125 21.546875 -3.953125 21.546875 -9.296875 L 21.546875 -26.515625 Z M 23.3125 -26.515625 "/></g></g></g><g fill="#ffffff" fill-opacity="1"><g transform="translate(258.892021, 255.993718)"><g><path d="M 7.53125 -12.65625 L 7.53125 0 L 3.609375 0 L 3.609375 -26.515625 L 12.25 -26.515625 C 14.945312 -26.515625 17.15625 -25.910156 18.875 -24.703125 C 20.601562 -23.503906 21.46875 -21.921875 21.46875 -19.953125 C 21.46875 -17.992188 20.78125 -16.445312 19.40625 -15.3125 C 18.03125 -14.175781 16.164062 -13.394531 13.8125 -12.96875 L 24.546875 0 L 19.90625 0.5625 L 10.609375 -12.65625 Z M 7.53125 -13.859375 L 10.09375 -13.859375 C 14.894531 -13.859375 17.296875 -15.753906 17.296875 -19.546875 C 17.296875 -20.179688 17.132812 -20.898438 16.8125 -21.703125 C 16.207031 -23.390625 14.898438 -24.5 12.890625 -25.03125 C 11.078125 -25.03125 9.289062 -24.800781 7.53125 -24.34375 Z M 7.53125 -13.859375 "/></g></g></g><g fill="#ffffff" fill-opacity="1"><g transform="translate(131.613655, 311.493714)"><g><path d="M 21.421875 -19.625 C 21.421875 -17.0625 20.476562 -15.117188 18.59375 -13.796875 C 16.71875 -12.472656 14.164062 -11.8125 10.9375 -11.8125 L 7.484375 -11.8125 L 7.484375 0 L 3.609375 0 L 3.609375 -26.515625 L 12.21875 -26.515625 C 14.914062 -26.515625 17.125 -25.898438 18.84375 -24.671875 C 20.5625 -23.441406 21.421875 -21.757812 21.421875 -19.625 Z M 7.484375 -12.96875 L 11.046875 -12.96875 C 12.304688 -12.96875 13.382812 -13.207031 14.28125 -13.6875 C 15.175781 -14.175781 15.820312 -14.789062 16.21875 -15.53125 C 16.9375 -16.875 17.296875 -18.171875 17.296875 -19.421875 C 17.296875 -20.035156 17.132812 -20.769531 16.8125 -21.625 C 16.175781 -23.382812 14.859375 -24.53125 12.859375 -25.0625 C 10.929688 -25.0625 9.140625 -24.835938 7.484375 -24.390625 Z M 7.484375 -12.96875 "/></g></g></g><g fill="#ffffff" fill-opacity="1"><g transform="translate(152.82993, 311.493714)"><g><path d="M 3.609375 0 L 3.609375 -26.515625 L 7.53125 -26.515625 L 7.53125 -2.15625 C 9.15625 -1.675781 10.460938 -1.4375 11.453125 -1.4375 L 18.703125 -2.6875 L 18.21875 0 Z M 3.609375 0 "/></g></g></g><g fill="#ffffff" fill-opacity="1"><g transform="translate(171.684362, 311.493714)"><g><path d="M 0.40625 0 L 12.296875 -27.15625 L 12.890625 -27.15625 L 24.78125 0 L 20.421875 0 L 17.421875 -7.203125 L 5.53125 -7.203125 L 2.5625 0 Z M 6.125 -8.734375 L 16.78125 -8.734375 L 11.5 -21.703125 Z M 6.125 -8.734375 "/></g></g></g><g fill="#ffffff" fill-opacity="1"><g transform="translate(196.223234, 311.493714)"><g><path d="M 15.8125 0.484375 C 11.675781 0.484375 8.191406 -0.632812 5.359375 -2.875 C 2.535156 -5.125 1.125 -8.34375 1.125 -12.53125 C 1.125 -14.988281 1.585938 -17.175781 2.515625 -19.09375 C 3.453125 -21.019531 4.679688 -22.53125 6.203125 -23.625 C 9.273438 -25.863281 12.722656 -26.984375 16.546875 -26.984375 C 18.753906 -26.984375 21.0625 -26.585938 23.46875 -25.796875 L 23.0625 -23.0625 C 21.8125 -23.601562 20.835938 -24.003906 20.140625 -24.265625 C 18.140625 -24.984375 16.125 -25.34375 14.09375 -25.34375 C 11.289062 -24.707031 9.132812 -23.320312 7.625 -21.1875 C 6.113281 -19.050781 5.359375 -16.378906 5.359375 -13.171875 C 5.359375 -9.242188 6.382812 -6.21875 8.4375 -4.09375 C 10.5 -1.976562 13.210938 -0.921875 16.578125 -0.921875 C 19.941406 -0.921875 22.453125 -1.640625 24.109375 -3.078125 L 24.109375 -0.875 C 21.816406 0.03125 19.050781 0.484375 15.8125 0.484375 Z M 15.8125 0.484375 "/></g></g></g><g fill="#ffffff" fill-opacity="1"><g transform="translate(220.8822, 311.493714)"><g><path d="M 3.609375 0 L 3.609375 -26.515625 L 19.65625 -26.515625 L 19.265625 -23.828125 L 11.8125 -25.0625 C 10.5 -25.0625 9.054688 -24.835938 7.484375 -24.390625 L 7.484375 -14.65625 L 16.375 -14.65625 L 16.375 -13.140625 L 7.484375 -13.140625 L 7.484375 -1.4375 L 19.90625 -2.6875 L 19.5 0 Z M 3.609375 0 "/></g></g></g></svg>